<?xml version="1.0" encoding="UTF-8" standalone="no"?><!DOCTYPE svg PUBLIC "-//W3C//DTD SVG 1.1//EN" "http://www.w3.org/Graphics/SVG/1.1/DTD/svg11.dtd"><svg width="100%" height="100%" viewBox="0 0 1080 1080" version="1.1" xmlns="http://www.w3.org/2000/svg" xmlns:xlink="http://www.w3.org/1999/xlink" xml:space="preserve" xmlns:serif="http://www.serif.com/" style="fill-rule:evenodd;clip-rule:evenodd;stroke-linejoin:round;stroke-miterlimit:2;"><g id="Background"><path d="M178.59,1079.999l-3.164,0c-0.188,-1.043 -0.239,-1.327 0.568,-13.238c0.36,-5.321 0.7,-5.219 0.828,-10.493c0.822,-33.699 -1.641,-35.347 -3.673,-42.141c-0.095,-0.319 2.368,-13.518 -1.847,-20.154c-2.685,-4.227 -5.7,0.995 -5.944,1.419c-0.936,1.621 -1.675,3.348 -2.541,5.008c-3.016,5.783 -6.695,6.627 -11.529,16.903c-2.1,4.464 -11.203,17.223 -12.974,18.543c-0.331,0.088 -0.537,-0.638 -0.868,-0.55c-0.871,0.233 -0.336,0.823 -1.185,1.098c-0.653,0.212 -0.531,-0.542 -1.175,-0.333c8.497,-14.636 5.738,-16.174 9.759,-19.862c6.438,-5.906 6.231,-6.075 10.771,-13.576c9.265,-15.309 9.332,-15.142 19.346,-30.025c6.293,-9.352 5.244,-14.177 7.154,-16.2c5.686,-6.021 7.065,-4.768 11.155,-11.975c0.221,-0.389 5.895,-7.054 10.114,-16.025c0.52,-1.105 3.508,-13.316 3.793,-14.479c0.117,-0.477 2.634,-10.764 -1.765,-5.883c-2.006,2.226 -9.555,8.852 -10.406,9.599c-18.664,16.384 -18.134,16.822 -19.751,18.24c-4.389,3.845 -4.816,0.8 -4.6,0.499c1.175,-1.643 1.941,-0.836 18.375,-17.317c2.022,-2.028 17.357,-14.886 17.23,-16.809c-0.176,-2.691 -10.494,-2.527 -11.872,-2.217c-10.486,2.356 -17.969,-0.493 -21.508,5.173c-0.245,0.392 -7.044,9.277 -6.999,4.475c0.023,-2.479 1.611,-7.482 -4.233,-5.463c-8.305,2.869 -9.116,-5.467 -27.229,0.572c-6.219,2.073 -5.984,2.497 -10.805,6.826c-1.807,1.622 -3.273,0.056 -1.662,-1.682c7.237,-7.804 10.109,-4.464 16.452,-13.005c2.145,-2.888 2.782,-0.159 6.439,0.048c2.445,0.138 1.89,2.695 3.218,2.907c16.789,2.687 21.083,-5.069 34.791,-7.81c2.596,-0.519 18.556,-7.395 21.667,-12.241c2.934,-4.57 0.091,-5.912 3.968,-9.871c16.522,-16.87 19.54,-16.861 25.72,-32.125c1.474,-3.642 16.939,-12.885 10.076,-18.226c-4.442,-3.457 -14.224,-18.663 -19.361,-21.599c-4.69,-2.681 -4.468,-2.919 -7.672,-7.226c1.821,-2.446 1.936,-2.376 1.967,-2.638c0.026,-0.216 -0.01,-0.176 -1.873,-3.993c-0.666,-1.365 -7.806,-15.989 -6.13,-17.968c2.916,-3.443 4.354,16.221 12.793,23.163c6.671,5.487 5.033,8.384 13.616,9.772c3.305,0.534 5.792,4.422 7.383,4.46c5.068,0.118 3.924,2.227 7.668,5.587c4.948,4.44 19.754,-23.673 22.351,-26.709c5.203,-6.084 5.992,-5.679 9.307,-16.125c2.46,-7.753 3.409,-7.291 6.356,-14.832c0.945,-2.418 -10.543,-1.416 -11.877,-0.998c-17.061,5.35 -19.191,4.476 -22.14,4.797c-0.203,0.022 -5.57,2.752 -4.868,0.428c1.019,-3.371 38.696,-9.311 41.454,-11.078c0.076,-0.049 16.777,-38.357 18.232,-41.694c1.269,-2.911 -1.24,-2.991 -0.437,-8.504c1.15,-7.892 15.258,-17.655 15.862,-28.439c0.138,-2.461 2.339,-10.466 -1.643,-11.774c-5.421,-1.78 -3.418,-3.583 -3.248,-9.296c0.198,-6.682 8.448,0.999 24.255,-14.77c4.257,-4.247 7.779,-17.432 3.762,-26.133c-6.1,-13.21 -4.329,-13.798 -4.948,-14.89c-1.182,-2.087 -1.13,0.322 -2.491,3.863c-2.92,7.595 -2.222,8.398 -3.733,8.579c-3.302,0.395 0.928,-5.113 1.124,-12.548c0.283,-10.759 1.026,-10.666 0.924,-11.591c-0.355,-3.224 -0.764,-3.066 -0.928,-6.341c-0.008,-0.154 -3.828,-13.143 -6.72,-15.4c-4.848,-3.784 -1.005,-7.018 -5.081,-11.886c-9.081,-10.847 -9.244,-17.582 -10.067,-18.425c-2.152,-2.203 -13.329,13.681 -10.894,5.625c2.501,-8.274 9.768,-6.472 9.836,-35.85c0.02,-8.608 0.838,-8.467 3.062,-16.841c3.415,-12.861 -10.701,6.043 -10.928,1.066c-0.063,-1.392 2.159,-0.028 10.522,-13.876c12.259,-20.299 7.852,-41.114 4.403,-40.027c-4.864,1.533 -1.504,-2.374 1.707,-13.713c0.605,-2.137 -0.886,-1.985 -0.891,-7.313c-0.002,-2.103 0.033,-4.206 0.003,-6.309c-0.109,-7.548 -8.382,6.265 -18.715,6.814c-3.254,0.173 -15.689,8.65 -17.708,11.259c-5.146,6.648 -7.92,9.613 -1.496,25.222c7.055,17.142 10.014,17.155 7.22,24.073c-2.919,7.228 -3.739,6.737 -3.943,7.038c-0.318,-0.552 -0.636,-1.103 -0.954,-1.655c0.895,-4.159 5.45,-8.429 2.645,-13.493c-8.321,-15.025 -7.07,-15.591 -10.394,-21.074c-3.284,-5.417 -3.45,-5.423 -3.541,-11.844c-0.043,-3.092 -3.315,-5.98 -0.397,-6.586c7.33,-1.523 8.611,-5.103 12.957,-7.759c12.933,-7.905 28.507,-21.535 27.339,-27.857c-0.886,-4.798 0.829,-4.66 1.071,-9.461c0.434,-8.593 0.379,-10.517 -2.26,-10.232c-3.464,0.375 0.114,-5.308 0.271,-7.688c0.392,-5.942 0.445,-5.913 -1.35,-11.616c-2.652,-8.423 -6.015,-8.663 -6.851,-14.841c-1.007,-7.437 -7.414,-9.418 -7.603,-9.658c-1.709,-2.157 12.141,-8.925 15.265,-16.754c7.517,-18.834 11.822,-21.467 11.442,-35.73c-0.218,-8.177 -12.811,-10.677 -15.24,-8.239c-6.088,6.112 -5.72,17.358 -9.609,16.488c-8.762,-1.959 -10.997,-0.396 -10.085,-2.802c1.264,-3.337 8.355,4.276 11.986,-5.551c2.862,-7.746 10.597,-11.752 1.239,-12.98c-2.978,-0.391 -2.506,-2.875 -0.034,-2.681c3.257,0.255 3.2,-1.126 6.402,-0.259c4.349,1.177 4.176,-0.391 8.488,-1.569c2.2,-0.601 7.947,-6.201 8.441,-6.424c12.502,-5.648 14.289,-8.281 20.47,-26.75c2.232,-6.67 1.955,-7.907 -1.664,-18.832c-2.247,-6.782 -1.045,-19.534 -5.62,-27.206c-0.896,-1.502 -20.762,-20.948 -20.892,-21.041c-11.412,-8.205 -17.505,-19.296 -22.079,-21.06c-5.901,-2.276 -4.263,-5.042 -10.343,-6.812c-0.582,-0.401 -0.552,-0.553 -1.144,-0.176c-5.786,-1.317 -12.134,-10.27 -9.478,-10.292c1.175,-0.01 0.986,0.434 6.605,6.129c3.742,3.792 5.279,1.061 11.309,5.583c9.188,6.891 7.278,-1.49 7.067,-2.039c-4.078,-10.641 -3.632,-10.708 -4.204,-11.504c-4.201,-5.84 -4.556,-5.801 -5.508,-12.897c-1.417,-10.567 -8.708,-13.762 -9.005,-16.821c-0.531,-5.47 -0.489,-5.4 -2.224,-10.504c-1.306,-3.842 -1.801,-3.585 -3.026,-7.432c-0.164,-0.517 1.066,-2.955 2.79,0.253c5.851,10.89 3.753,11.937 10.766,22.043c5.077,7.318 7.608,10.693 11.052,4.254c8.316,-15.548 5.999,-16.231 5.466,-18.223c-0.028,-0.104 -0.392,-12.25 -0.274,-12.431c3.178,-4.912 1.357,11.964 4.374,15.359c1.636,1.841 0.499,2.048 -1.122,3.861c-1.006,1.125 -11.411,19.752 -8.697,30.219c2.008,7.746 2.629,7.393 4.75,10.822c6.694,10.821 38.795,30.219 40.661,29.755c7.738,-1.922 3.89,-8.254 0.688,-17.273c-4.243,-11.955 -6.996,-10.562 -6.758,-11.61c0.26,-1.147 1.681,-0.65 1.826,-0.6c1.419,0.495 7.625,5.819 7.865,6.125c4.535,5.76 5.953,-2.624 10.06,-4.263c5.817,-2.322 -2.433,6.042 -2.829,6.443c-6.66,6.752 -2.102,11.531 -3.445,17.558c-2.499,11.218 0.02,16.099 0.867,18.968c2.547,8.629 0.302,9.419 5.314,16.872c9.574,14.239 11.739,12.216 24.87,25.704c3.761,3.863 3.34,12.571 5.616,18.633c1.799,4.791 9.685,8.957 13.905,7.541c5.528,-1.855 9.254,0.842 16.907,-2.036c10.725,-4.032 7.929,-17.422 10.355,-17.607c3.804,-0.291 -0.403,7.241 -1.023,13.1c-0.534,5.046 -19.674,13.319 -20.891,13.991c-2.791,1.543 -4.23,11.394 -1.803,18.586c5.964,17.673 11.019,15.297 18.467,17.421c1.793,0.511 3.527,1.221 5.325,1.714c2.233,0.612 2.004,-0.788 14.805,-5.216c0.25,-0.086 10.638,-1.928 1.885,2.715c-3.41,1.809 -4.548,1.737 -3.749,5.581c0.365,1.754 -1.646,2.757 0.96,6.244c6.291,8.416 5.765,17.781 9.714,21.891c10.389,10.813 20.042,6.666 21.619,7.186c9.982,3.294 10.992,-4.361 13.514,-1.21c0.594,0.742 0.392,1.362 -10.127,6.222c-3.788,1.75 0.117,4.763 -3.497,6.746c-7.5,4.116 -6.777,4.927 -11.534,11.923c-6.985,10.273 -22.942,23.254 -10.399,23.518c5.595,0.118 1.178,2.531 0.964,2.59c-4.598,1.267 -4.299,1.74 -7.732,5.2c-0.974,0.981 -6.761,6.815 -8.28,15.165c-2.231,12.269 -10.019,17.813 0.567,28.229c0.224,0.22 7.303,5.465 9.179,5.196c2.982,-0.428 13.71,-29.576 16.954,-31.181c6.359,-3.147 -8.391,16.977 -10.027,30.461c-0.618,5.092 -0.676,5.748 3.812,8.197c8.091,4.415 7.56,5.234 8.304,5.522c12.412,4.803 15.457,15.063 20.998,18.107c9.288,5.103 19.802,2.206 20.068,2.263c7.002,1.501 5.849,-9.311 6.48,-10.798c2.004,-4.731 3.673,-5.333 -0.069,-9.568c-5.177,-5.859 -6.697,-9.211 -18.16,-1.454c-2.009,1.359 -3.679,0.042 -1.852,-1.641c2.707,-2.494 1.025,-3.218 2.03,-6.379c1.332,-4.186 -1.089,-6.225 -3.091,-13.703c-1.794,-6.702 4.749,4.79 5.218,5.281c7.706,8.054 9.313,6.158 23.2,6.008c2.244,-0.024 2.047,-0.764 4.21,-0.946c6.123,-0.513 5.896,-4.723 7.709,-10.224c1.158,-3.511 -0.475,-6.455 -0.566,-7.474c-0.084,-0.928 -0.911,-10.108 -1.08,-11.602c-0.495,-4.383 -1.606,-4.075 -1.887,-8.458c-0.526,-8.213 -1.519,-7.923 -5.874,-14.994c-7.356,-11.943 -19.919,-12.712 -18.683,-17.855c0.742,-3.085 8.418,1.228 6.735,-5.139c-0.715,-2.705 1.868,-22.22 0.446,-27.566c-0.152,-0.572 -1.091,-4.102 -1.631,-7.214c-1.403,-8.088 -18.768,-35.837 -18.999,-37.968c-1.378,-12.681 4.474,0.57 4.626,0.915c3.12,7.064 6.135,6.97 8.937,10.84c2.64,3.647 3.076,3.105 6.203,6.496c0.478,0.518 6.843,7.418 8.455,2.465c5.8,-17.823 -1.839,10.735 3.715,33.022c2.286,9.175 7.042,4.673 10.372,4.861c8.437,0.475 8.722,-4.468 13.079,-14.077c1.988,-4.385 5.395,1.039 1.35,5.797c-3.265,3.84 -2.745,4.133 -6.015,9.786c-0.561,0.971 -4.206,7.27 -2.395,13.81c1.864,6.732 -0.337,7.116 2.27,13.669c0.422,1.06 4.28,10.756 6.068,12.9c6.067,7.274 12.835,7.034 14.093,6.989c2.064,-0.073 4.91,-2.624 5.897,-1.6c1.89,1.959 -5.975,2.459 -1.355,12.086c1.341,2.795 19.886,10.399 21.84,10.482c1.127,0.048 5.754,0.245 13.669,3.456c5.599,2.271 5.818,1.764 6.085,2.208c2.083,3.468 -12.331,-0.466 -12.234,2.99c0.043,1.542 12.604,12.573 13.798,13.41c8.116,5.69 15.395,9.569 16.454,0.285c1.114,-9.766 3.127,-8.981 7.512,-14.802c2.693,-3.574 5.779,-5.067 5.482,-26.298c-0.055,-3.962 2.945,-1.179 3.337,0.945c0.958,5.18 1.617,4.935 1.67,5.383c1.39,11.712 5.91,-1.527 5.999,-2.164c3.851,-27.636 14.45,-34.135 14.989,-39.005c0.412,-3.719 1.662,-3.618 0.888,-6.217c-1.487,-4.992 -5.39,-6.986 -6.068,-7.332c-3.821,-1.952 6.489,-3.206 8.418,-4.569c5.546,-3.92 4.122,8.417 4.082,8.563c-1.641,5.967 0.945,15.783 4.128,11.372c3.984,-5.52 4.899,-4.657 8.952,-10.128c8.591,-11.594 6.927,-21.505 10.584,-26.333c3.556,-4.696 -1.112,-12.644 -0.789,-13.692c1.52,-4.934 8.007,9.304 8.015,9.319c1.779,3.411 4.927,-3.07 11.544,-8.462c6.269,-5.108 9.829,-14.485 11.352,-16.985c2.105,-3.456 2.109,-10.964 2.279,-11.496c0.746,-2.336 1.862,-11.321 1.957,-11.645c0.997,-3.405 2.942,-21.614 3.111,-22.175c0.295,-0.977 2.851,-9.445 2.33,-12.536c-0.043,-0.256 -1.13,-13.313 2.396,-2.19c0.815,2.571 1.642,2.001 2.684,4.388c0.03,0.068 0.472,11.166 3.611,1.018c8.96,-28.966 25.977,-32.574 21.292,-46.506c-0.498,-1.481 6.65,-3.069 10.602,-9.209c2.577,-4.004 6.297,-4.658 9.76,-8.004c11.003,-10.634 10.132,-11.312 17.478,-24.817c0.458,-0.842 0.652,-7.098 3.673,-1.83c0.793,1.382 2.974,-1.502 3.147,-1.731c18.966,-25.088 20.036,-24.498 22.321,-31.429c4.985,-15.126 3.362,-19.173 7.429,-17.477c2.659,1.109 1.047,3.336 1.063,3.856c0.126,4.196 4.398,-3.982 4.502,-4.108c6.914,-8.33 14.466,-19.943 17.012,-23.086c10.019,-12.367 9.646,-12.627 10.587,-13.638c8.464,-9.094 7.69,-29.428 12.604,-20.552c1.821,3.289 8.9,-5.883 9.062,-7.209c0.565,-4.619 1.091,-4.385 3.282,-8.432c3.398,-6.273 1.208,-8.091 5.718,-9.942c-0.517,6.564 -3.868,9.652 -3.972,23.665c-0.076,10.332 -1.183,10.628 -9.939,16.219c-5.491,3.506 -3.181,8.004 -4.656,10.002c-3.583,4.849 -4.139,4.724 -4.413,10.68c-0.35,7.607 -9.405,5.829 -22.48,26.516c-3.9,6.17 5.206,-1.974 6.866,-0.914c4.994,3.186 -18.577,16.042 -28.932,39.967c-8.152,18.835 -7.539,19.063 -8.282,20.682c-0.427,0.93 -4.167,9.073 -4.921,11.803c-2.475,8.958 -3.108,8.7 -13.81,32.65c-1.712,3.832 5.556,5.101 6.129,5.758c5.973,6.843 10.765,-9.596 12.595,-2.397c0.844,3.319 2.232,2.137 8.88,-0.242c6.596,-2.36 6.083,-4.99 8.462,-6.252c6.138,-3.256 7.122,-4.102 9.52,-4.366c9.279,-1.021 -3.999,6.15 -5.025,7.749c-0.841,1.311 3.211,5.305 -2.338,5.416c-1.537,0.031 -16.954,0.337 -18.268,5.96c-0.858,3.67 -5.793,0.966 -8.908,2.682c-12.992,7.159 -18.705,13.04 -20.084,14.46c-2.309,2.377 -7.014,15.825 -7.436,17.767c-0.564,2.596 -13.888,24.592 -3.54,47.567c2.092,4.646 8.316,-8.039 11.813,-4.356c1.063,1.12 -6.862,17.079 -7.1,22.153c-0.866,18.468 2.488,22.958 3.202,25.19c2.031,6.357 2.871,5.837 6.145,11.626c7.253,12.825 8.873,11.565 9.48,12.676c0.336,0.614 3.308,6.053 7.178,4.998c8.642,-2.356 7.221,-4.604 7.871,-8.045c0.618,-3.273 5.137,-0.506 2.267,6.035c-5.063,11.541 0.497,14.923 0.811,19.203c0.54,7.367 5.339,8.098 12.21,13.892c10.143,8.553 13.686,5.97 14.614,8.337c0.757,1.932 -3.486,2.646 0.192,6.36c13.456,13.587 15.641,10.494 16.752,11.693c2.41,2.598 -3.821,2.781 -4.927,3.28c-6.617,2.983 -12.472,4.257 -7.657,8.31c10.705,9.011 13.655,15.315 20.643,26.974c1.041,1.738 4.641,-0.575 8.558,6.856c7.927,15.04 26.04,15.367 31.357,24.907c4.18,7.501 11.064,2.454 13.572,3.018c6.663,1.498 -8.904,3.575 -11.758,4.533c-3.658,1.228 -2.373,-1.95 -6.19,-4.457c-7.462,-4.9 -8.776,-9.532 -14.693,-2.764c-1.455,1.664 -8.829,14.097 -9.464,15.74c-3.348,8.659 -4.438,8.101 -7.843,16.692c-9.383,23.669 -6.61,25.909 -6.48,29.645c0.237,6.849 1.766,6.394 4.446,12.696c4.391,10.326 23.139,10.917 19.231,14.793c-0.558,0.553 -8.423,0.642 -8.663,0.744c-0.499,0.212 -8.506,37.713 -11.202,65.654c-0.309,3.202 1.21,7.224 1.252,8.369c0.326,8.854 3.321,7.619 7.695,14.886c0.743,1.234 -0.478,2.596 -1.629,1.684c-1.548,-1.227 -1.18,-1.45 -1.315,-1.539c-2.346,-1.555 -2.488,-1.22 -4.817,-2.858c-2.452,-1.725 -3.319,-5.254 -4.555,-4.564c-2.812,1.57 -0.178,7.719 -0.566,9.179c-1.428,5.37 -1.557,21.523 -2.041,23.192c-1.255,4.331 0.375,4.157 1.897,8.406c0.46,1.283 5.531,15.444 5.733,16.047c4.149,12.417 5.944,11.395 14.269,19.591c8.742,8.607 9.089,8.25 9.707,9.117c3.775,5.3 -9.856,-4.219 -10.406,1.775c-1.761,19.208 2.502,30.286 3.448,32.744c5.882,15.285 8.911,13.905 13.833,29.485c2.763,8.746 1.706,8.841 1.706,17.959c0.002,20.974 7.853,21.59 9.921,30.555c4.817,20.883 26.748,32.29 24.921,42.166c-0.107,0.581 -0.629,3.401 0.47,7.37c3.198,11.548 1.206,17.408 0.629,22.175c-0.288,2.378 -3.892,5.086 -3.895,1.086c-0.005,-7.977 -1.075,-7.866 -0.673,-15.775c0.315,-6.21 -1.232,-10.352 -1.246,-11.642c-0.023,-2.115 0.025,-4.23 -0.043,-6.344c-0.134,-4.181 -2.779,-3.148 -8.501,-11.693c-3.994,-5.964 -8.596,-9.74 -10.466,-11.715c-0.422,-0.446 -10.749,-16.853 -11.734,-19.864c-6.538,-19.989 -8.296,-21.268 -17.879,-30.709c-8.423,-8.298 -4.411,-12.497 -16.618,-24.519c-4.051,-3.989 -4.697,-1.819 -7.718,-0.244c-3.234,1.686 -1.397,-1.252 -0.395,-4.702c0.569,-1.96 1.09,-13.817 0.675,-15.809c-1.07,-5.136 5.748,-5.264 0.937,-20.038c-3.986,-12.241 -4.46,-11.97 -8.579,-24.208c-2.968,-8.82 -7.244,-10.867 -3.29,-10.745c7.042,0.217 3.36,-14.92 -0.112,-19.706c-15.067,-20.768 -14.134,-21.553 -15.991,-22.783c-6.499,-4.303 -6.462,-7.806 -10.247,-7.047c-9.071,1.818 0.907,-3.562 1.181,-3.71c0.483,-0.26 2.648,0.194 3.14,0.092c0.987,-0.204 1.756,-0.362 6.283,-10.912c1.208,-2.814 6.001,-17.286 6.214,-19.018c0.971,-7.893 3.303,-8.134 0.016,-14.741c-7.399,-14.871 -5.737,-15.543 -6.492,-16.767c-9.373,-15.18 -7.674,-15.875 -10.66,-24.275c-2.683,-7.55 -18.292,3.873 -25.867,6.651c-8.932,3.275 -7.662,5.707 -10.971,7.56c-4.136,2.316 -4.229,2.005 -8.407,4.272c-3.965,2.152 -3.306,2.895 -6.537,5.14c-1.838,1.277 -6.18,4.294 -16.138,22.845c-0.519,0.967 -4.799,7.414 -0.324,5.102c2.903,-1.499 3.004,-0.793 6.282,-0.671c0.209,0.008 7.434,0.276 0.987,2.421c-5.627,1.871 -5.299,2.468 -12.853,7.317c-12.87,8.261 -12.548,8.704 -13.682,9.394c-8.908,5.428 -2.077,23.791 -2.701,25.902c-0.501,1.694 -0.558,1.74 3.78,13.752c3.206,8.879 8.458,9.043 13.979,15.711c4.629,5.59 -3.493,0.546 -5.32,0.738c-1.289,0.136 -3.884,1.039 2.408,16.025c2.779,6.618 -0.093,16.321 6.955,30.781c7.2,14.773 7.523,15.287 16.714,19.43c8.138,3.669 -6.722,2.501 -11.158,-3.75c-0.633,-0.892 -8.132,-11.458 -13.649,-0.911c-7.732,14.78 -4.513,16.361 -6.918,25.092c-0.269,0.978 -1.424,5.168 0.893,12.647c1.282,4.139 -1.905,3.686 -7.832,17.039c-4.28,9.642 -0.067,20.021 -0.908,20.259c-6.852,1.934 -3.011,-24.691 1.103,-34.951c1.894,-4.723 -0.319,-14.564 -2.484,-9.675c-4.06,9.169 -4.587,8.861 -4.893,9.672c-4.715,12.471 -18.228,38.161 -17.162,43.164c1.452,6.815 0.625,6.792 0.92,13.725c0.052,1.231 5.377,11.915 3.861,14.089c-0.555,0.797 -2.814,2.017 -7.343,-9.67c-2.467,-6.368 -0.933,-10.123 -3.678,-9.601c-1.506,0.286 -0.955,0.914 -3.13,7.296c-0.399,1.172 -7.396,11.595 -8.419,14.772c-2.351,7.299 -3.757,7.258 -2.167,14.726c2.66,12.489 1.881,13.034 0.984,13.662c-2.09,1.464 -2.031,-6.818 -2.484,-8.28c-5.389,-17.421 -3.161,-25.268 -3.764,-27.535c-1.064,-4.002 -0.827,-4.016 -0.798,-15.811c0.012,-4.797 0.403,-4.702 0.891,-9.471c1.124,-10.993 11.405,-27.511 17.15,-38.846c0.185,-0.365 3.478,-6.861 -0.245,-5.114c-1.265,0.593 -14.302,6.712 -16.83,4.657c-4.13,-3.358 2.913,-3.575 14.303,-12.7c0.842,-0.675 12.034,-16.492 17.431,-28.068c0.936,-2.007 -1.199,-3.585 -2.548,-1.263c-2.276,3.918 -3.666,-0.289 -3.629,-0.951c0.522,-9.356 7.859,-14.36 8.063,-14.718c6.831,-12.032 5.413,-15.633 3.447,-25.393c-1.782,-8.846 -0.511,-13.134 -6.962,-18.616c-5.796,-4.926 -5.442,-5.355 -6.05,-5.614c-4.028,-1.715 -3.922,6.594 -4.094,8.458c-0.099,1.074 -2.801,7.302 -4.008,-0.069c-1.429,-8.72 0.014,-8.732 -0.129,-9.476c-2.495,-12.998 -2.206,-13.22 -9.517,-24.335c-7.375,-11.212 -4.004,-13.388 -11.989,-20.735c-1.56,-1.435 -2.078,-0.325 -3.687,-1.687c-2.794,-2.366 -3.147,-1.461 -6.743,-2.444c-22.538,-6.156 -24.177,-8.933 -25.296,-10.828c-4.749,-8.043 -5.477,-7.632 -5.6,-8.432c-1.229,-7.962 -2.995,-7.37 -3.993,-12.679c-0.112,-0.598 -1.327,-7.058 -1.287,-7.491c0.622,-6.675 3.208,1.971 3.3,2.279c2.747,9.185 2.806,9.099 6.688,17.797c5.289,11.849 14.328,8.072 18.862,11.674c4.365,3.468 7.212,2.927 16.905,2.85c7.653,-0.06 12.826,-6.46 18.203,-9.766c5.328,-3.275 4.364,-4.567 6.29,-6.625c9.313,-9.953 -5.217,-2.057 -10.532,-4.883c-0.201,-0.107 -3.355,-3.404 1.834,-2.179c5.102,1.204 4.709,-6.393 15.935,-9.736c7.976,-2.375 20.25,-17.76 20.385,-18.051c1.351,-2.92 -1.243,-1.523 -8.838,-1.721c-0.37,-0.01 -2.577,-0.804 -3.148,-0.837c-0.222,-0.013 -6.216,-0.36 -1.508,-2.342c4.207,-1.771 7.19,2.067 24.284,-18.759c9.081,-11.064 6.751,-16.465 5.51,-17.469c-7.005,-5.674 -7.791,-1.765 -10.419,-1.622c-7.184,0.391 -6.734,1.956 -14.728,4.692c-8.565,2.931 -7.666,4.8 -12.689,6.229c-2.296,0.653 -2.079,-5.158 -8.283,-23.234c-2.434,-7.091 -4.931,4.36 -6.41,5.414c-8.019,5.716 3.062,-17.032 -6.925,-28.002c-7.3,-8.018 -3.992,-10.284 -11.462,-18.088c-1.204,-1.257 -2.888,2.376 -3.026,2.545c-9.637,11.854 0.449,13.138 0.014,19.163c-0.348,4.83 -4.312,-3.804 -8.167,-5.322c-5.865,-2.31 -0.602,2.444 1.013,8.529c1.577,5.942 1.942,5.818 2.046,6.341c0.237,1.182 -0.948,6.338 -0.954,6.344c-4.186,4.551 -1.383,-9.916 -6.258,-6.207c-1.111,0.845 -3.65,8.165 -3.661,8.227c-1.681,9.764 -10.236,9.904 -7.255,19.122c0.909,2.811 -13.28,16.94 -16.281,24.324c-3.602,8.861 -5.049,8.102 -7.054,13.4c-5.098,13.474 -6.627,12.679 -7.058,13.845c-2.559,6.92 -8.24,10.44 0.178,13.449c1.224,0.437 3.115,-0.865 3.916,-0.445c4.85,2.541 -10.739,6.26 -13.455,10.28c-0.996,1.474 -10.121,14.978 -11.712,18.908c-4.352,10.75 -7.26,9.06 -10.517,16.891c-0.502,1.207 -4.536,5.813 -4.661,8.4c-0.381,7.924 -0.991,7.886 -0.843,8.558c1.378,6.25 -0.067,6.394 1.551,12.515c1.1,4.16 -3.214,6.427 -1.476,9.647c1.589,2.945 1.52,2.907 1.697,6.228c0.057,1.066 2.512,8.79 2.185,11.462c-0.322,2.628 -5.422,-1.943 -5.68,-2.136c-5.414,-4.053 -16.577,22.758 -17.652,27.68c-1.9,8.697 -0.925,8.776 -1.16,9.505c-0.976,3.034 -0.46,3.016 -0.788,6.206c-0.485,4.713 -3.057,4.883 -3.704,3.18c-1.529,-4.028 0.579,-4.23 -0.407,-8.355c-2.815,-11.778 -6.356,0.715 -11.098,3.294c-6.315,3.434 -6.11,3.679 -10.705,9.273c-3.985,4.852 -5.1,3.658 -11.827,11.408c-8.542,9.84 -9.146,9.127 -9.777,10.055c-2.98,4.387 -2.58,4.777 -7.126,7.568c-6.36,3.905 0.373,22.545 3.255,27.018c4.091,6.35 8.6,24.701 8.506,25.138c-0.896,4.18 -4.349,-4.52 -4.549,-5.024c-1.391,-3.503 -1.828,-3.23 -3.268,-6.729c-6.394,-15.537 -7.565,-14.859 -13.833,-28.436c-2.334,-5.057 -6.572,-7.833 -3.37,-12.371c0.434,-0.616 2.6,-3.684 3.799,-8.617c1.844,-7.586 5.13,-10.67 5.855,-13.553c2.269,-9.022 7.401,-11.848 -0.429,-14.637c-2.109,-0.751 -11.576,-8.101 -11.665,-8.641c-1.133,-6.87 8.82,7.537 18.034,5.874c7.937,-1.433 7.929,-1.252 8.568,-1.528c7.62,-3.302 8.723,-1.822 10.291,-2.679c7.564,-4.132 7.776,-3.705 8.372,-4.157c3.305,-2.51 3.052,-2.722 6.675,-4.772c1.855,-1.05 2.378,-4.767 3.42,-6.219c4.691,-6.535 -9.055,-27.713 -10.676,-31.987c-2.5,-6.589 -2.391,-6.616 -2.629,-7.179c-4.164,-9.872 -14.144,-19.809 -16.671,-25.382c-3.053,-6.735 -4.599,-5.844 -7.384,-12.655c-5.918,-14.474 -11.092,1.27 -12.576,3.104c-6.308,7.8 -5.606,9.904 -8.157,14.911c-5.725,11.239 -5.642,-2.193 -4.701,-5.469c2.221,-7.728 1.914,-7.804 2.185,-8.447c3.241,-7.699 3.291,-7.622 3.502,-8.313c2.855,-9.34 2.119,-9.535 -0.571,-18.933c-3.718,-12.989 -2.413,-13.441 -8.615,-24.633c-3.67,-6.622 -8.397,4.847 -8.39,10.814c0.005,3.866 -1.316,3.195 -1.547,3.048c-2.011,-1.281 -0.277,-29.064 -7.297,-43.213c-1.893,-3.816 -5.213,-2.784 -5.708,-17.829c-0.012,-0.353 0.141,-0.699 0.127,-1.052c-0.066,-1.665 -4.109,-3.478 -13.987,15.434c-1.564,2.995 -5.755,0.53 -2.818,-0.912c2.174,-1.067 1.697,-1.514 1.821,-3.978c0.089,-1.771 0.017,-3.548 0.121,-5.318c0.193,-3.303 5.973,-9.248 4.755,-13.767c-1.674,-6.209 1.568,-5.831 2.255,-11.478c0.745,-6.117 -3.706,-0.642 -6.779,-0.372c-6.115,0.536 -15.221,-4.049 -14.219,19.284c0.025,0.587 0.99,2.617 1.141,4.259c0.655,7.132 -3.299,-0.137 -3.993,-0.82c-3.085,-3.037 -3.042,0.195 -4.602,4.19c-2.676,6.852 -0.667,11.313 -2.758,13.228c-6.744,6.175 -5.886,6.837 -10.078,18.304c-1.821,4.981 -6.821,9.237 -2.094,13.288c12.262,10.51 13.607,10.264 13.67,10.802c0.555,4.747 -9.969,-4.323 -18.165,-6.308c-0.603,-0.146 -2.206,-0.534 -4.68,6.179c-5.091,13.817 -25.842,18.99 -16.208,26.251c5.828,4.393 -1.839,6.118 -1.179,26.669c0.086,2.665 4.802,3.837 6.296,3.4c1.942,-0.568 2.375,-0.112 2.263,1.859c-0.228,4.011 11.259,2.319 22.14,6.939c3.777,1.604 5.722,-4.87 9.171,-2.36c1.481,1.078 1.674,0.306 2.203,-1.404c1.311,-4.239 3.864,-3.004 3.567,-0.963c-0.379,2.6 -0.601,2.485 -0.753,5.175c-0.369,6.523 -6.137,15.051 9.742,24.473c8.449,5.013 19.003,16.462 18.988,16.642c-0.502,5.98 -23.402,-21.709 -23.592,-11.604c-0.146,7.752 -0.687,7.752 -0.334,8.317c2.333,3.737 0.595,4.153 1.597,7.64c0.732,2.549 0.064,2.531 -0.027,5.127c-0.361,10.306 -1.735,10.028 -3.888,20.087c-0.416,1.945 8.371,15.327 7.966,17.9c-0.929,5.906 -4.436,-7.284 -9.677,-14.028c-4.473,-5.754 5.587,-16.084 2.892,-26.074c-2.366,-8.769 -0.79,-9.049 -3.36,-16.797c-8.691,-26.201 -18.488,-22.607 -30.491,-25.509c-2.526,-0.611 -1.88,0.857 -3.833,4.688c-5.373,10.534 -3.786,12.44 -2.91,18.735c1.125,8.081 8.457,6.66 9.929,9.415c3.921,7.342 0.427,7.468 -0.657,10.753c-1.665,5.049 -0.135,5.264 -1.417,10.39c-2.249,8.998 1.929,9.464 2.123,13.68c0.492,10.664 1.016,10.661 0.781,11.557c-1.073,4.095 0.175,4.703 4.404,4.455c5.141,-0.301 1.732,10.993 2.362,12.371c9.891,21.649 17.993,18.813 17.062,33.921c-0.237,3.848 -3.172,0.421 -2.23,-3.302c1.789,-7.07 -22.412,-29.145 -22.6,-29.281c-6.963,-5.041 -7.341,7.737 -19.636,26.35c-4.556,6.897 -2.935,7.44 -3.123,12.528c-0.036,0.97 -1.755,3.805 -0.57,7.441c1.399,4.294 -0.989,4.59 1.232,11.533c1.073,3.355 -10.75,20.01 -7.94,30.429c0.443,1.643 -0.5,11.089 -1.502,11.69c-2.396,1.438 -1.295,-9.636 -1.492,-10.396c-3.507,-13.484 10.032,-28.523 2.104,-37.663c-6.022,-6.943 -1.582,-9.655 0.872,-18.236c0.434,-1.518 -5.645,-13.234 3.675,-19.323c5.821,-3.803 8.244,-21.919 7.395,-25.043c-2.856,-10.504 2.478,-17.294 0.965,-22.114c-2.539,-8.089 3.716,-16.619 -1.846,-22.27c-2.609,-2.65 -3.794,-20.054 -7.752,-6.362c-3.454,11.947 -5.667,11.172 -8.058,23.297c-1.762,8.938 -16.053,24.571 -9.754,43.312c1.914,5.695 -0.846,5.203 -4.733,9.703c-3.015,3.491 0.668,6.348 0.599,8.132c-0.171,4.449 -3.185,-1.654 -3.321,-1.93c-2.336,-4.731 -4.003,-0.568 -5.153,0.759c-4.08,4.71 -9.649,6.933 -11.18,8.777c-6.584,7.93 -3.893,12.002 -2.483,17.741c2.304,9.38 -1.784,8.57 -12.43,22.219c-5.038,6.459 -3.401,9.624 -4.041,11.624c-1.935,6.04 3.475,10.132 1.016,15.832c-2.459,5.7 -2.621,5.999 -8.57,7.741c-4.085,1.196 -11.164,13.415 -11.446,16.402c-1.467,15.547 -12.095,18.431 -11.84,25.299c0.196,5.298 -1.97,5.159 -2.576,9.426c-0.302,2.129 3.379,14.608 3.747,15.859c0.535,1.813 -0.829,2.876 1.286,7.225c2.023,4.161 1.933,4.433 -1.783,15.877c-5.635,17.354 -2.251,39.751 -5.453,45.103c-0.617,1.031 -2.635,0.877 -2.01,-3.889c0.896,-6.838 0.268,-6.816 0.94,-13.625c1.736,-17.588 0.858,-17.648 1.254,-19.13c2.747,-10.284 -0.701,-10.094 -1.149,-13.552c-0.468,-3.613 -1.031,-3.79 0.987,-6.724c0.726,-1.055 -0.911,-4.44 -0.951,-4.866c-0.567,-5.971 -1.02,-5.834 -1.051,-6.348c-1.695,-28.392 13.447,-55.222 16.381,-61.124c8.675,-17.448 16.381,-46.207 15.356,-49.562c-0.299,-0.98 -1.196,-3.913 1.452,-12.722c1.892,-6.296 1.851,-6.266 1.747,-13.739c-0.056,-3.983 -1.416,-4.906 -4.687,-2.68c-21.393,14.561 -17.409,58.293 -20.068,61.16c-3.196,3.448 -0.197,-4.121 -1.889,-19.713c1.001,-2.445 0.97,-2.368 1.794,-4.946c0.565,-2.862 1.05,-3.1 -0.651,-5.017c-0.949,-1.069 -1.032,-1.374 -1.071,-1.517c-0.155,-0.569 0.554,-0.377 0.4,-0.943c1.159,-3.595 1.134,-3.534 1.305,-7.351c0.18,-4.036 10.899,-18.601 -1,-13.223c-5.516,2.493 -5.813,1.296 -8.749,2.504c-13.811,5.682 -14.696,3.777 -27.141,12.079c-6.998,4.668 -20.286,19.268 -31.598,27.435c-5.965,4.307 -3.787,12.793 -5.344,17.67c-2.231,6.989 2.934,13.053 2.331,16.884c-1.019,6.482 -2.246,6.719 0.73,12.526c2.273,4.436 3.059,3.866 14.777,7.195c-0.364,0.833 -0.729,1.667 -1.093,2.5c-5.372,0.284 -13.101,-7.195 -15.704,-3.204c-7.052,10.813 -2.138,12.951 -1.152,13.38c5.348,2.327 2.633,4.236 -1.147,8.643c-2.349,2.739 -1.879,2.939 -3.35,6.261c-4.453,10.054 -1.399,10.922 -4.264,16.801c-0.216,0.444 -3.157,0.923 -1.382,-6.018c4.036,-15.779 -6.688,-0.891 -10.438,2.487c-1.391,1.253 -2.038,0.186 -9.734,6.245c-2.814,2.216 -8.228,16.961 -8.904,10.12c-0.842,-8.516 17.448,-16.974 28.809,-31.492c9.655,-12.339 2.781,-16.011 3.37,-20.177c1.229,-8.684 0.889,-8.715 1.071,-9.454c1.681,-6.846 1.484,-6.998 -0.734,-12.6c-3.813,-9.631 -6.045,4.397 -10.269,6.148c-7.504,3.111 -11.623,13.271 -12.911,15.729c-6.433,12.271 -8.593,10.875 -14.97,23.096c-1.379,2.643 -4.875,4.397 -4.423,6.464c0.477,2.18 0.266,2.128 -0.525,4.27c-1.405,3.803 1.26,7.88 0.476,10.698c-1.443,5.188 -1.196,5.197 -0.546,10.498c0.938,7.648 0.638,7.666 0.725,8.329c1.417,10.848 1.223,10.81 1.511,11.71c4.806,15.006 -3.62,17.265 3.683,28.13c6.017,8.953 25.686,18.812 25.682,22.45c-0.004,4.464 -9.937,-7.203 -17.526,-11.914c-9.01,-5.593 -10.917,-8.704 -11.058,-5.066c-0.813,20.98 -0.843,20.971 -0.681,22.787Zm403.454,-506.776c0.125,1.884 0.554,8.357 5.218,23.018c0.894,2.812 1.924,2.276 3.533,7.617c2.178,7.231 1.138,7.413 3.474,14.667c0.316,0.983 3.542,5.843 -3.507,18.907c-2.44,4.522 -8.292,-0.396 -12.71,12.706c-0.18,0.535 -0.709,0.245 -3.332,6.219c-1.081,2.463 -1.729,1.988 -2.676,4.448c-0.766,1.99 -1.438,-0.287 -4.075,-3.381c-0.515,-0.604 -0.259,-0.762 -5.289,-8.391c-0.424,-0.644 0.43,-0.889 -2.357,-9.343c-0.564,-1.709 0.606,-14.672 -3.034,-11.545c-3.076,2.642 -3.284,21.868 -6.17,17.655c-6.208,-9.061 -8.382,-6.783 -16.209,-14.4c-4.592,-4.47 -5.974,-4.059 -6.897,-10.756c-0.096,-0.695 -0.197,-0.588 -2.144,-8.507c-0.696,-2.831 -5.227,0.122 -14.481,-14.284c-11.142,-17.347 -6.255,-19.105 -7.806,-22.584c-0.65,-1.457 -4.716,-10.576 -6.246,-18.939c-0.144,-0.786 1.497,-2.714 4.53,2.4c2.728,4.599 5.549,5.276 9.647,13.628c2.79,5.686 4.132,4.324 4.372,3.921c1.692,-2.846 -6.766,-6.63 -6.825,-26.261c-0.024,-8.118 -0.529,-8.005 -2.762,-15.726c-1.319,-4.562 6.35,-34.584 10.63,-38.351c0.914,-0.804 3.953,-7.051 5.332,-3.844c1.204,2.8 1.213,5.362 3.159,2.928c9.731,-12.175 10.279,-17.168 12.634,-15.385c9.028,6.837 8.449,7.341 15.357,16.295c10.942,14.183 15.467,14.836 18.719,30.852c0.588,2.897 2.7,6.391 2.789,8.475c0.395,9.218 2.403,10.087 3.815,19.996c0.098,0.688 0.801,0.464 2.188,8.405c0.834,4.772 0.858,4.704 1.122,9.559Zm192.937,-162.424c-0.022,-0.259 -0.273,-3.243 -0.273,-3.243c-0.478,-1.562 -0.772,-1.549 -0.704,-29.457c0.021,-8.621 16.215,2.805 17.073,3.528c3.596,3.027 15.026,16.938 15.625,17.863c7.655,11.81 13.308,15.691 19.278,22.024c0.971,1.03 8.235,12.156 8.582,12.531c5.605,6.067 -0.907,6.093 -1.042,6.261c-4.336,5.401 15.504,-1.163 24.278,26.397c0.661,2.076 -0.739,3.031 -5.089,15.887c-1.454,4.296 -1.639,4.14 -3.226,8.417c-5.71,15.386 -6.071,20.616 -6.951,22.93c-6.178,16.249 -4.905,22.587 -11.229,20.628c-10.082,-3.122 -13.274,0.206 -28.3,-4.708c-11.449,-3.744 -11.826,-2.135 -23.29,-6.057c-9.6,-3.284 -9.721,-2.9 -10.506,-3.3c-3.968,-2.023 6.773,-32.807 6.865,-34.832c0.21,-4.622 4.592,-32.723 2.714,-39.034c-1.104,-3.713 -0.592,-3.77 -0.737,-21.068c-0.04,-4.754 -2.457,-8.612 -3.069,-14.767Zm-19.974,-8.415c1.384,9.91 7.324,7.124 9.877,16.875c2.336,8.924 1.016,9.25 4.572,17.805c1.436,3.455 2.503,23.552 0.747,29.612c-2.474,8.535 4.376,12.201 -5.013,40.165c-2.525,7.521 -1.263,16.448 -12.562,8.938c-4.289,-2.851 -8.3,-13.065 -8.547,-18.511c-0.809,-17.885 1.543,-20.819 -1.116,-24.364c-1.252,-1.67 -0.611,-7.222 -2.88,-3.832c-0.315,0.47 0.706,0.627 -0.849,7.018c-0.547,2.249 1.863,24.059 -5.816,26.624c-3.881,1.297 -13.759,-11.132 -19.253,-14.594c-2.368,-1.493 -0.534,-3.147 -3.069,-4.225c-7.392,-3.145 -6.022,-4.828 -9.646,-8.478c-0.674,-0.679 -4.085,-1.654 -5.661,-4.711c-7.721,-14.974 -2.863,-18.01 -13.924,-27.443c-7.798,-6.65 -8.263,-5.845 -16.762,-11.728c-2.928,-2.027 3.666,-3.342 6.736,-8.274c2.906,-4.669 3.827,-4.145 5.357,-9.387c0.755,-2.588 1.87,-1.758 5.952,-6.977c0.653,-0.835 25.858,-12.923 31.24,-13.889c6.489,-1.165 8.959,-5.124 10.738,-6.063c7.477,-3.946 18.868,-11.008 20.492,-6.516c2.952,8.166 1.996,8.525 6.735,15.595c1.932,2.882 2.538,5.82 2.65,6.36Zm-170.383,41.61c5.438,1.292 11.135,8.767 12.868,9.66c4.297,2.213 8.31,3.359 3.994,5.609c-1.278,0.666 -4.981,5.863 -15.829,9.433c-6.17,2.031 -8.631,3.957 -19.995,3.264c-3.524,-0.215 -4.244,-1.825 -6.212,1.131c-1.376,2.068 2.423,2.448 10.301,4.579c3.725,1.008 11.498,-1.939 7.337,5.833c-1.575,2.941 1.032,2.863 2.092,1.921c10.381,-9.221 16.149,-7.521 27.615,-7.481c1.075,0.004 3.012,0.011 12.559,4.768c4.172,2.079 3.9,2.669 8.446,3.452c2.474,0.426 26.407,15.689 27.111,20.657c0.485,3.421 -2.224,7.293 -3.631,11.629c-2.207,6.799 -4.167,5.651 -7.296,11.679c-0.319,0.615 -2.937,9.601 -6.098,3.805c-11.078,-20.316 -11.998,-25.096 -14.595,-22.153c-1.921,2.176 15.185,18.228 5.971,46.792c-3.295,10.214 -6.965,14.375 -7.008,14.51c-2.582,8.103 -4.406,6.875 -4.919,6.475c-0.479,-0.373 0.476,-1.221 -2.536,-6.061c-2.554,-4.104 -2.764,1.634 -3.537,4.037c-2.121,6.59 0.546,6.89 -1.117,13.659c-3.035,12.352 -3.339,12.664 -4.406,12.612c-2.603,-0.127 -5.439,-9.766 -9.317,-13.873c-6.762,-7.162 -15.728,-35.344 -16.189,-39.896c-3.833,-37.801 -8.126,-36.681 -12.441,-41.174c-7.918,-8.246 -19.804,-24.063 -19.843,-24.222c-0.126,-0.509 0.263,-2.863 -0.639,-3.884c-5.667,-6.41 -6.896,-8.108 -0.787,-14.209c7.288,-7.278 7.305,-7.412 7.414,-8.295c0.735,-5.911 1.631,-5.662 2.056,-11.608c0.034,-0.48 0.88,-2.88 0.896,-3.18c0.189,-3.584 -1.111,-3.802 1.534,-10.447c2.005,-5.039 2.342,-13.525 6.15,-14.026c6.26,-0.824 7.808,-1.988 8.899,1.103c3.67,10.394 4.609,22.877 11.151,23.904Zm-126.546,20.042c5.243,0.685 5.916,4.139 12.707,2.903c3.417,-0.622 5.197,-2.587 5.108,0.812c-0.205,7.872 -24.682,29.797 -29.251,27.983c-12.234,-4.857 -12.099,-5.333 -15.981,-5.745c-2.356,-0.25 -11.004,-6.936 -6.906,-1.354c3.127,4.259 4.705,2.749 7.293,7.391c1.712,3.071 10.539,4.921 -1.755,23.158c-3.371,5.001 -2.313,5.944 -7.383,9.302c-4.661,3.087 -4.9,6.222 -9.267,2.648c-1.91,-1.563 -6.476,-7.09 -8.798,-16.891c-0.301,-1.27 -8.075,-23.222 -17.364,-37.073c-8.448,-12.597 -9.58,-11.56 -12.435,-14.961c-11.046,-13.159 -11.061,-14.013 -11.087,-15.539c-0.163,-9.603 0.725,-9.571 -0.893,-18.986c-1.148,-6.68 3.198,-4.414 4.188,-4.635c4.007,-0.893 -3.671,-6.573 -9.913,-22.55c-6.526,-16.702 -6.697,-17.004 -7.481,-18.385c-3.559,-6.268 4.504,0.335 8.006,0.821c10.271,1.426 19.106,7.621 27.361,8.163c3.463,0.228 3.073,1.26 15.682,10.438c6.997,5.093 6.278,5.755 11.9,12.294c13.508,15.711 19.94,9.385 22.019,17.009c1.081,3.966 -5.58,15.797 -23.172,17.258c-2.707,0.225 -2.63,0.994 -5.162,0.258c-0.271,-0.079 -9.638,-0.129 -1.111,3.346c1.392,0.567 3.08,0.089 10.525,2.089c4.212,1.132 19.884,-1.164 22.041,-0.62c5.641,1.422 26.768,1.629 27.128,2.168c1.07,1.6 -3.886,5.143 -5.963,5.284c-5.807,0.394 -7.76,-0.897 -6.991,1.702c0.398,1.345 6.383,1.681 6.955,1.713Zm-107.089,-155.526c0.208,-1.627 1.676,-13.084 5.088,-19.859c2.937,-5.832 2.697,11.343 5.737,6.955c7.772,-11.219 6.67,-27.861 11.666,-23.623c4.081,3.462 1.718,-2.587 0.868,-14.048c-0.073,-0.982 -0.863,-11.641 -0.183,-12.304c1.475,-1.436 1.283,0.319 3.031,3.616c7.639,14.398 19.662,13.757 11.778,37.228c-2.216,6.599 0.246,6.878 -1.227,13.673c-1.119,5.163 4.351,11.199 6.243,20.972c1.078,5.57 4.666,4.078 4.057,2.107c-1.747,-5.658 -1.279,-5.682 -1.475,-6.149c-2.333,-5.55 -1.489,-5.704 -1.509,-11.745c-0.021,-6.521 -3.232,-28.708 1.885,-29.008c0.862,-0.051 0.652,0.37 7.041,8.181c6.971,8.524 7.832,7.678 8.397,8.445c4.076,5.533 5.845,3.459 10.557,8.448c3.509,3.716 -7.799,3.86 -3.709,6.861c7.757,5.693 11.478,-0.375 18.597,2.866c2.721,1.238 1.133,7.237 0.972,7.849c-2.469,9.331 0.418,9.896 -3.188,18.911c-2.139,5.348 -1.94,12.417 -5.429,16.588c-2.338,2.795 -4.371,7.47 -6.55,3.401c-9.276,-17.321 -14.947,-19.478 -22.278,-30.793c-3.826,-5.906 -1.658,1.341 -1.588,1.502c4.706,10.805 15.011,20.563 15.624,21.479c6.71,10.027 6.413,10.197 7.023,11.049c1.985,2.773 -0.282,3.244 -0.415,5.364c-0.108,1.733 0.106,3.487 -0.132,5.207c-0.105,0.756 -1.099,2.577 -8.939,-3.33c-0.338,-0.255 -2.164,-1.631 -4.326,-3.052c-6.616,-4.349 -3.299,5.902 -3.122,6.447c2.396,7.405 -7.952,-2.729 -8.47,-3.236c-5.108,-5.002 -5.793,-4.072 -10.995,-9.031c-3.125,-2.979 -6.232,-1.993 -4.335,-5.822c2.065,-4.17 -4.585,-0.71 -5.85,-0.617c-14.811,1.098 -26.418,-11.456 -29.301,-13.312c-4.861,-3.129 3.769,-6.6 1.029,-15.494c-2.465,-8.003 2.174,-7.506 3.43,-15.724Zm-58,481.978c0.064,-0.726 -2.85,-3.886 11.135,-22.126c10.527,-13.73 11.008,-13.399 11.569,-14.792c3.764,-9.346 7.677,-6.541 11.61,-6.558c2.527,-0.011 12.746,-1.245 10.078,2.053c-9.467,11.698 -26.155,19.795 -26.462,27.716c-0.307,7.906 -0.555,7.821 -3.308,17.991c-0.713,2.635 1.833,2.285 2.553,-0.153c3.651,-12.368 0.908,-13.704 9.259,-23.525c4.943,-5.813 9.472,-3.473 12.092,-10.141c2.53,-6.438 6.156,-6.765 8.976,-10.951c3.192,-4.738 4.324,-3.513 8.505,-7.445c8.489,-7.983 21.827,-6.919 20.828,-1.587c-2.834,15.121 -3.769,14.805 -4.655,17.846c-3.348,11.496 -2.1,11.984 -8.43,22.116c-0.763,1.221 -0.553,5.028 -2.371,7.157c-7.187,8.417 -7.866,14.277 -9.076,17.19c-4.859,11.707 -8.994,7.98 -17.975,16.862c-19.44,19.226 -57.364,25.58 -69.762,37.816c-12.284,12.123 -12.62,11.637 -13.67,12.698c-8.772,8.858 -8.441,9.095 -9.388,9.603c-2.811,1.509 -1.977,-1.942 4.793,-9.938c6.64,-7.842 0.435,-12.869 19.306,-32.408c1.546,-1.601 2,-4.93 5.365,-8.352c15.538,-15.802 14.004,-17.036 15.352,-18.398c4.472,-4.516 4.016,-4.825 8.411,-9.522c5.087,-5.437 5.112,-5.725 5.265,-13.153Zm96.051,-299.464c2.755,9.269 8.812,15.054 10.007,28.407c0.34,3.793 0.806,3.661 0.948,7.39c0.165,4.336 1.249,4.276 0.378,8.508c-0.522,2.536 4.109,12.507 0.375,24.049c-2.67,8.253 -1.879,9.939 -5.719,15.074c-0.02,0.027 -3.796,8.19 -7.617,7.227c-1.842,-0.465 -3.238,-8.741 -4.282,-12.657c-1.493,-5.603 0.925,-8.533 -10.803,-31.488c-0.183,-0.358 -12.217,-14.255 -7.085,-14.26c1.065,-0.001 18.29,10.246 8.9,1.144c-0.562,-0.544 -0.301,-0.764 -6.475,-7.324c-4.459,-4.738 -0.228,-8.246 -5.134,-18.952c-0.43,-0.938 0.351,-1.196 -4.054,-12.246c-3.969,-9.958 0.256,-10.054 3.604,-28.694c1.17,-6.513 4.705,0.944 11.667,8.405c2.829,3.032 2.511,6.022 8.2,12.866c0.385,0.464 0.263,0.476 3.974,6.404c1.851,2.957 1.966,2.801 3.115,6.147Zm-37.255,241.686c-11.425,9.556 -12.573,8.066 -23.543,11.007c-4.601,1.234 -6.554,0.684 -5.398,-3.902c1.617,-6.414 0.819,-6.553 3.466,-12.579c2.111,-4.804 0.34,-11.237 7.186,-9.064c3.039,0.965 3.905,-1.816 7.66,1.498c7.323,6.463 15.53,-0.79 15.521,5.426c-0.002,1.318 -4.448,7.043 -4.892,7.615Zm-0.79,-51.909c1.051,-10.296 6.484,-14.879 6.906,-14.866c0.785,0.024 10.652,16.101 11.022,16.585c3.182,4.175 0.277,4.32 -3.745,7.657c-2.346,1.946 -13.121,5.442 -14.183,-9.376Zm345.715,-296.086c3.767,-3.329 7.538,-6.839 9.112,-5.414c4.044,3.662 4.415,4.859 0.649,8.84c-2.311,2.443 -20.348,10.737 -20.494,10.715c-1.404,-0.216 -3.313,-2.84 10.733,-14.141Zm41.981,-17.036c4.451,-1.983 3.823,0.597 3.74,0.894c-0.571,2.033 -5.215,4.341 -5.742,4.603c-9.629,4.786 -7.997,7.404 -18.013,11.492c-3.624,1.479 -2.281,-3.311 0.265,-5.073c8.729,-6.042 18.122,-11.047 19.75,-11.915Zm-334.775,342.456c0.258,-0.313 3.05,-3.7 4.652,-2.031c0.42,0.437 -2.042,5.33 -2.13,5.458c-2.188,3.172 -4.2,0.166 -2.522,-3.426Z" style="fill-opacity:1;"/><path d="M135.086,1036.059c0.644,-0.209 0.522,0.545 1.175,0.333c0.849,-0.275 0.314,-0.865 1.185,-1.098c0.331,-0.088 0.537,0.638 0.868,0.55c-12.246,21.865 -15.607,21.116 -16.235,19.205c-0.725,-2.206 7.699,-8.609 10.609,-14.478c0.182,-0.366 1.167,-2.353 2.398,-4.511Z" style="fill-opacity:0.96;"/><path d="M298.764,867.459c0.154,0.566 -0.555,0.374 -0.4,0.943c0.039,0.143 0.122,0.448 1.071,1.517c1.701,1.918 1.216,2.155 0.651,5.017c-0.186,-0.331 0.416,-0.783 0.23,-1.114c-0.924,-1.646 -1.56,-0.789 -2.21,1.042c-0.088,0.249 -0.077,0.24 -1.179,4.422c-0.32,1.688 0.071,1.811 -1.203,3.053c-5.502,5.363 2.568,-13.761 3.04,-14.88Z" style="fill-opacity:0.82;"/><path d="M244.076,943.177c3.749,0.049 3.6,-0.516 7.248,-0.597c3.102,-0.069 0.504,3.73 -8.341,3.097c0.364,-0.833 0.729,-1.667 1.093,-2.5Z" style="fill-opacity:0.84;"/><path d="M215.26,787.426c-2.53,-4.078 -6.206,-8.554 -2.928,-7.397c1.24,0.438 4.541,5.837 4.344,6.161c-0.325,0.536 -1.092,0.7 -1.417,1.236Z" style="fill-opacity:0.88;"/><path d="M411.468,692.405c0.014,-0.297 -0.195,-6.054 1.226,-5.986c0.567,0.027 1.572,0.075 0.994,7.026c-0.016,0.195 -1.551,3.096 -2.22,-1.04Z" style="fill-opacity:0.56;"/><path d="M300.087,874.936c-0.824,2.578 -0.793,2.501 -1.794,4.946l-1.365,-0.596c1.103,-4.182 1.091,-4.173 1.179,-4.422c0.65,-1.831 1.287,-2.688 2.21,-1.042c0.186,0.331 -0.416,0.783 -0.23,1.114Z" style="fill-opacity:0.35;"/><path d="M452.856,587.341c-0.184,-0.092 -8.563,-6.387 -0.016,-2.574c0.916,0.409 1.232,1.712 0.948,2.117c-0.199,0.283 -0.734,0.174 -0.932,0.457Z" style="fill-opacity:0.62;"/><path d="M305.597,538.5c-0.255,0.278 -0.086,0.8 -0.341,1.078c-2.272,2.475 -2.765,-5.285 -0.083,-3.294c0.145,0.108 0.031,0.161 0.424,2.216Z" style="fill-opacity:0.52;"/><path d="M470.911,593.015c1.933,3.222 -2.779,2.354 -2.403,0.176c0.168,-0.977 0.582,-0.433 2.403,-0.176Z" style="fill-opacity:0.85;"/><path d="M289.345,470.916c0.318,0.552 0.636,1.103 0.954,1.655c-0.769,0.649 -0.251,0.937 -0.962,1.537c-0.078,0.066 -0.45,0.38 -1.232,0.315c-1.585,-0.131 1.049,-3.279 1.24,-3.507Z" style="fill-opacity:0.24;"/><path d="M647.92,635.478c3.341,2.943 -1.943,2.332 -1.943,1.026c0,-1.275 0.586,-0.747 1.943,-1.026Z" style="fill-opacity:0.95;"/><path d="M288.256,120.427c0.592,-0.377 0.562,-0.225 1.144,0.176l-1.144,-0.176Z" style="fill-opacity:0.2;"/></g></svg>